<?xml version="1.0" encoding="utf-8"?>
<!-- Generator: Adobe Illustrator 15.1.0, SVG Export Plug-In  -->
<!DOCTYPE svg PUBLIC "-//W3C//DTD SVG 1.1//EN" "http://www.w3.org/Graphics/SVG/1.1/DTD/svg11.dtd" [
	<!ENTITY ns_flows "http://ns.adobe.com/Flows/1.0/">
]>
<svg version="1.1"
	 xmlns="http://www.w3.org/2000/svg" xmlns:xlink="http://www.w3.org/1999/xlink" xmlns:a="http://ns.adobe.com/AdobeSVGViewerExtensions/3.0/"
	 x="0px" y="0px" width="132px" height="70px" viewBox="-28.051 -15 132 70"
	 overflow="visible" enable-background="new -28.051 -15 132 70" xml:space="preserve">
<defs>
</defs>
<path d="M0,13.395h2.11V2.041H0V0h6.918c6.263,0,9.218,3.05,9.218,7.622c0,4.552-2.861,7.811-9.076,7.811H0V13.395z M7.271,13.44
	c3.4,0,4.689-1.48,4.689-5.794c0-4.082-1.36-5.652-4.854-5.652H5.935v11.444h1.337V13.44z"/>
<path d="M16.979,12.736c0-0.727,0.281-1.407,0.774-1.9c0.728-0.727,1.853-1.196,4.55-1.548c1.289-0.187,1.406-0.211,1.406-0.493
	V7.832c0-1.407-0.655-1.923-2.016-1.923c-0.47,0-0.963,0.094-1.407,0.281c0.352,0.259,0.562,0.657,0.562,1.196
	c0,0.822-0.704,1.457-1.666,1.457c-1.196,0-1.782-0.776-1.782-1.643c0-2.017,2.51-2.979,5.206-2.979
	c3.307,0,4.479,1.548,4.479,3.824v4.995c0,0.542,0.212,0.659,0.588,0.659c0.257,0,0.516-0.258,0.727-1.057l1.15,0.376
	c-0.446,1.805-1.313,2.625-2.886,2.625c-1.337,0-2.393-0.703-2.578-2.321h-0.118c-0.703,1.667-2.016,2.321-3.634,2.321
	C18.386,15.643,16.979,14.52,16.979,12.736z M23.709,11.259V10.18c-0.211,0.048-0.468,0.07-1.056,0.187
	c-1.665,0.282-2.182,0.821-2.182,1.878c0,0.751,0.423,1.407,1.455,1.407C22.982,13.649,23.709,12.666,23.709,11.259z"/>
<path d="M32.831,16.957c0,0.303-0.07,0.634-0.187,0.867c0.961-0.116,1.548-0.564,2.228-2.204l-4.409-9.217h-1.454V4.457h6.874v1.947
	h-1.668l2.464,5.747l2.204-5.747h-1.385V4.457h4.81v1.947h-1.337l-3.753,8.724c-1.126,2.651-2.393,4.386-4.926,4.386
	c-1.993,0-3.025-1.033-3.025-2.44c0-1.103,0.728-1.97,1.807-1.97C32.269,15.105,32.831,16.043,32.831,16.957z"/>
<path d="M0.423,30.829h2.062c1.009,2.627,2.299,3.822,4.785,3.822c1.665,0,2.603-0.821,2.603-2.041c0-1.432-1.572-1.781-3.916-2.369
	c-2.533-0.61-5.394-1.478-5.394-4.926c0-2.86,2.415-4.901,5.417-4.901c1.688,0,3.144,0.634,3.94,1.713l0.491-1.665h2.064v5.487
	h-2.064c-0.985-2.559-2.133-3.589-4.126-3.589c-1.572,0-2.416,0.916-2.416,1.971c0,1.546,1.713,1.9,4.033,2.461
	c2.509,0.611,5.277,1.433,5.277,4.786c0,2.93-2.322,5.019-5.675,5.019c-1.923,0-3.611-0.799-4.48-1.877l-0.562,1.83h-2.04V30.829z"
	/>
<path d="M14.023,34.275h1.595V22.035h-1.595V20.04h5.042v7.668c0.847-1.664,1.994-2.696,3.776-2.696c2.37,0,3.354,1.597,3.354,3.871
	v5.393h1.572v1.948h-6.262v-1.948h1.243v-4.924c0-0.729-0.141-1.314-0.492-1.667c-0.259-0.233-0.61-0.374-1.104-0.374
	c-1.078,0-2.088,1.103-2.088,2.673v4.292h1.221v1.948h-6.263V34.275z"/>
<path d="M28.656,33.526c0-0.729,0.281-1.406,0.774-1.9c0.728-0.729,1.854-1.198,4.549-1.548c1.292-0.187,1.407-0.212,1.407-0.493
	v-0.962c0-1.407-0.656-1.922-2.016-1.922c-0.469,0-0.962,0.091-1.408,0.279c0.353,0.257,0.563,0.658,0.563,1.197
	c0,0.821-0.703,1.453-1.665,1.453c-1.197,0-1.783-0.772-1.783-1.643c0-2.015,2.511-2.977,5.206-2.977c3.308,0,4.48,1.548,4.48,3.822
	v4.996c0,0.539,0.212,0.656,0.586,0.656c0.257,0,0.516-0.258,0.729-1.057l1.149,0.377c-0.447,1.807-1.313,2.626-2.885,2.626
	c-1.338,0-2.393-0.704-2.581-2.322h-0.116c-0.703,1.664-2.017,2.322-3.637,2.322C30.063,36.433,28.656,35.308,28.656,33.526z
	 M35.387,32.049V30.97c-0.21,0.047-0.469,0.068-1.055,0.188c-1.666,0.281-2.183,0.821-2.183,1.875c0,0.752,0.422,1.408,1.454,1.408
	C34.661,34.44,35.387,33.456,35.387,32.049z"/>
<path d="M40.805,38.053h1.594V27.193h-1.594v-1.946h4.831v2.578c0.656-1.734,1.853-2.838,3.658-2.838
	c1.149,0,2.041,0.447,2.743,1.15c1.01,1.009,1.502,2.556,1.502,4.409c0,1.923-0.563,3.446-1.548,4.433
	c-0.797,0.798-1.713,1.244-2.838,1.244c-1.619,0-2.744-0.775-3.308-1.829v3.658h2.017V40h-7.059L40.805,38.053L40.805,38.053z
	 M49.833,30.594c0-2.277-0.633-3.424-1.946-3.424c-1.36,0-2.251,1.617-2.251,3.635c0,1.971,0.728,3.519,2.298,3.519
	C49.246,34.323,49.833,33.009,49.833,30.594z"/>
<path d="M58.016,31.179c0.141,2.559,1.174,3.402,2.909,3.402c1.312,0,2.135-0.539,2.626-1.923h1.828
	c-0.42,2.3-1.969,3.798-5.041,3.798c-3.659,0-5.887-2.249-5.887-5.627c0-3.33,2.462-5.839,5.769-5.839
	c3.706,0,5.44,2.627,5.277,6.189H58.016z M58.04,29.704h4.104c-0.117-2.23-0.727-3.123-1.994-3.123
	C58.932,26.584,58.181,27.356,58.04,29.704z"/>
<path d="M66.435,32.398h1.806c0.964,1.48,2.299,2.487,3.637,2.487c0.984,0,1.432-0.445,1.432-1.126c0-0.845-0.61-1.174-2.793-1.735
	c-2.626-0.68-3.915-1.524-3.915-3.494c0-1.922,1.547-3.543,3.985-3.543c1.432,0,2.465,0.542,3.144,1.361l0.374-1.313h1.83v3.751
	h-1.807c-0.846-1.313-1.971-2.228-3.142-2.228c-0.916,0-1.385,0.421-1.385,1.055c0,0.798,0.633,1.104,2.72,1.643
	c2.393,0.635,4.011,1.406,4.011,3.589c0,1.9-1.478,3.61-4.151,3.61c-1.712,0-2.861-0.703-3.564-1.501l-0.376,1.478h-1.806
	L66.435,32.398L66.435,32.398z"/>
</svg>
