<?xml version="1.0" encoding="utf-8"?>
<!-- Generator: Adobe Illustrator 15.1.0, SVG Export Plug-In . SVG Version: 6.00 Build 0)  -->
<!DOCTYPE svg PUBLIC "-//W3C//DTD SVG 1.1//EN" "http://www.w3.org/Graphics/SVG/1.1/DTD/svg11.dtd">
<svg version="1.1" id="Layer_1" xmlns="http://www.w3.org/2000/svg" xmlns:xlink="http://www.w3.org/1999/xlink" x="0px" y="0px"
	 width="100px" height="24px" viewBox="0 0 100 24" enable-background="new 0 0 100 24" xml:space="preserve">
<g>
	<path fill="#FFFFFF" d="M7.788,4.267v19.165h-3.57V4.267H0.749V1H11.19v3.267H7.788z"/>
	<path fill="#FFFFFF" d="M26.647,23.432H23.48l-1.852-13.336l-2.055,13.336h-3.132L13.174,1h3.537l1.617,14.988L20.45,1h2.762
		l1.886,14.988L26.917,1h3.301L26.647,23.432z"/>
	<path fill="#FFFFFF" d="M32.201,23.432V1h8.961v3.166h-5.39v6.197h3.738v2.965h-3.738v6.837h5.39v3.267H32.201z"/>
	<path fill="#FFFFFF" d="M51.634,23.432L47.861,13.26l-1.246-3.436v13.607h-3.233V1h3.166l3.502,10.273l1.146,3.469V1h3.201v22.432
		H51.634z"/>
	<path fill="#FFFFFF" d="M63.453,4.267v19.165h-3.569V4.267h-3.471V1h10.44v3.267H63.453z"/>
	<path fill="#FFFFFF" d="M76.417,14.404v9.027h-3.569v-9.027L68.807,1h3.639l2.392,9.397L77.16,1h3.535L76.417,14.404z"/>
	<path fill="#FFFFFF" d="M82.85,23.432V2.549c1.112,0,1.518-0.742,1.518-1.549h1.818v22.432H82.85z"/>
	<path fill="#FFFFFF" d="M94.434,23.432h-3.637c0.305-6.635,2.628-13.979,5.087-19.198h-6.399V1h9.769v1.683
		C96.253,10.228,94.637,16.021,94.434,23.432z"/>
</g>
</svg>
