<?xml version="1.0" encoding="utf-8"?>
<!-- Generator: Adobe Illustrator 15.1.0, SVG Export Plug-In  -->
<!DOCTYPE svg PUBLIC "-//W3C//DTD SVG 1.1//EN" "http://www.w3.org/Graphics/SVG/1.1/DTD/svg11.dtd" [
	<!ENTITY ns_flows "http://ns.adobe.com/Flows/1.0/">
]>
<svg version="1.1"
	 xmlns="http://www.w3.org/2000/svg" xmlns:xlink="http://www.w3.org/1999/xlink" xmlns:a="http://ns.adobe.com/AdobeSVGViewerExtensions/3.0/"
	 x="0px" y="0px" width="100px" height="100px" viewBox="-0.5 -0.5 100 100"
	 overflow="visible" enable-background="new -0.5 -0.5 100 100" xml:space="preserve">
<defs>
</defs>
<path d="M49.5,6.091c23.975,0,43.409,19.436,43.409,43.408c0,23.974-19.435,43.41-43.409,43.41
	c-23.974,0-43.408-19.436-43.408-43.41C6.092,25.527,25.526,6.091,49.5,6.091 M49.5,0c-6.68,0-13.162,1.31-19.27,3.893
	c-5.895,2.493-11.188,6.062-15.731,10.606C9.954,19.042,6.387,24.335,3.893,30.23C1.31,36.337,0,42.82,0,49.5
	c0,6.679,1.31,13.163,3.893,19.27c2.493,5.895,6.062,11.188,10.606,15.732c4.544,4.544,9.837,8.112,15.731,10.605
	C36.338,97.69,42.82,99,49.5,99c6.681,0,13.163-1.31,19.271-3.893c5.895-2.493,11.188-6.062,15.731-10.605
	c4.544-4.545,8.112-9.838,10.606-15.732C97.691,62.662,99,56.179,99,49.5c0-6.68-1.309-13.163-3.892-19.269
	c-2.494-5.895-6.062-11.188-10.606-15.732c-4.544-4.544-9.837-8.113-15.731-10.606C62.663,1.31,56.181,0,49.5,0L49.5,0z"/>
<path d="M15.646,43.64h1.872V33.571h-1.872v-1.81h6.137c5.555,0,8.176,2.705,8.176,6.761c0,4.036-2.538,6.928-8.051,6.928h-6.262
	V43.64z M22.096,43.681c3.017,0,4.16-1.311,4.16-5.138c0-3.62-1.206-5.014-4.306-5.014h-1.04v10.151H22.096z"/>
<path d="M30.707,43.057c0-0.645,0.249-1.248,0.686-1.685c0.646-0.646,1.644-1.062,4.036-1.374c1.144-0.166,1.248-0.187,1.248-0.437
	v-0.853c0-1.248-0.582-1.706-1.789-1.706c-0.416,0-0.853,0.083-1.248,0.249c0.312,0.229,0.499,0.583,0.499,1.062
	c0,0.728-0.624,1.29-1.477,1.29c-1.062,0-1.581-0.687-1.581-1.456c0-1.789,2.226-2.642,4.618-2.642c2.933,0,3.974,1.373,3.974,3.392
	v4.43c0,0.479,0.187,0.583,0.52,0.583c0.229,0,0.458-0.229,0.645-0.937l1.02,0.333c-0.395,1.602-1.165,2.33-2.559,2.33
	c-1.186,0-2.122-0.624-2.288-2.059h-0.104c-0.624,1.477-1.788,2.059-3.224,2.059C31.955,45.636,30.707,44.638,30.707,43.057z
	 M36.677,41.746V40.79c-0.187,0.042-0.416,0.062-0.937,0.166c-1.477,0.25-1.935,0.728-1.935,1.665c0,0.666,0.375,1.248,1.29,1.248
	C36.032,43.868,36.677,42.994,36.677,41.746z"/>
<path d="M44.768,46.801c0,0.27-0.062,0.562-0.166,0.77c0.853-0.104,1.373-0.5,1.977-1.956l-3.911-8.175h-1.29v-1.726h6.096v1.726
	h-1.478l2.185,5.097l1.955-5.097h-1.228v-1.726h4.266v1.726h-1.186l-3.329,7.738c-0.999,2.351-2.122,3.891-4.369,3.891
	c-1.768,0-2.684-0.916-2.684-2.164c0-0.978,0.646-1.748,1.603-1.748C44.269,45.158,44.768,45.99,44.768,46.801z"/>
<path d="M16.021,59.105h1.83c0.895,2.33,2.039,3.391,4.244,3.391c1.477,0,2.309-0.729,2.309-1.81c0-1.27-1.394-1.581-3.474-2.101
	c-2.247-0.541-4.784-1.312-4.784-4.369c0-2.538,2.143-4.348,4.805-4.348c1.498,0,2.788,0.562,3.495,1.519l0.437-1.477h1.831v4.867
	h-1.831c-0.874-2.268-1.893-3.183-3.661-3.183c-1.394,0-2.143,0.812-2.143,1.748c0,1.372,1.519,1.685,3.578,2.184
	c2.226,0.54,4.681,1.269,4.681,4.243c0,2.601-2.06,4.452-5.034,4.452c-1.706,0-3.204-0.707-3.974-1.664l-0.499,1.622h-1.81V59.105z"
	/>
<path d="M28.086,62.163H29.5V51.305h-1.414v-1.769h4.472v6.803c0.75-1.478,1.769-2.393,3.35-2.393c2.102,0,2.975,1.415,2.975,3.433
	v4.784h1.395v1.727h-5.555v-1.727h1.103v-4.368c0-0.646-0.125-1.165-0.437-1.478c-0.229-0.207-0.541-0.332-0.979-0.332
	c-0.956,0-1.852,0.978-1.852,2.371v3.807h1.082v1.727h-5.554V62.163z"/>
<path d="M41.065,61.498c0-0.646,0.249-1.248,0.687-1.686c0.645-0.645,1.644-1.061,4.035-1.373c1.145-0.166,1.248-0.187,1.248-0.437
	v-0.854c0-1.248-0.582-1.705-1.788-1.705c-0.416,0-0.854,0.083-1.249,0.249c0.312,0.229,0.5,0.583,0.5,1.062
	c0,0.729-0.624,1.29-1.478,1.29c-1.061,0-1.581-0.687-1.581-1.457c0-1.788,2.227-2.642,4.618-2.642c2.934,0,3.974,1.373,3.974,3.391
	v4.431c0,0.479,0.188,0.583,0.52,0.583c0.229,0,0.458-0.229,0.646-0.937l1.02,0.333c-0.396,1.603-1.165,2.33-2.559,2.33
	c-1.187,0-2.122-0.624-2.289-2.06h-0.104c-0.624,1.477-1.789,2.06-3.225,2.06C42.313,64.077,41.065,63.079,41.065,61.498z
	 M47.035,60.188V59.23c-0.187,0.041-0.416,0.062-0.936,0.166c-1.477,0.25-1.935,0.729-1.935,1.664c0,0.666,0.374,1.248,1.289,1.248
	C46.391,62.309,47.035,61.436,47.035,60.188z"/>
<path d="M51.841,65.513h1.414v-9.632h-1.414v-1.727h4.285v2.288c0.582-1.539,1.644-2.517,3.245-2.517
	c1.019,0,1.81,0.395,2.434,1.019c0.895,0.896,1.331,2.268,1.331,3.911c0,1.706-0.499,3.058-1.372,3.933
	c-0.708,0.706-1.52,1.102-2.518,1.102c-1.436,0-2.434-0.686-2.934-1.622v3.245h1.789v1.727h-6.261V65.513z M59.85,58.897
	c0-2.019-0.562-3.037-1.727-3.037c-1.207,0-1.997,1.436-1.997,3.225c0,1.747,0.645,3.12,2.038,3.12
	C59.329,62.205,59.85,61.04,59.85,58.897z"/>
<path d="M67.108,59.417c0.125,2.268,1.04,3.017,2.579,3.017c1.165,0,1.894-0.478,2.33-1.706h1.622
	c-0.374,2.039-1.747,3.37-4.472,3.37c-3.245,0-5.222-1.997-5.222-4.992c0-2.954,2.185-5.18,5.117-5.18
	c3.287,0,4.826,2.33,4.681,5.491H67.108z M67.129,58.107h3.641c-0.104-1.977-0.645-2.768-1.769-2.768
	C67.92,55.34,67.254,56.026,67.129,58.107z"/>
<path d="M74.575,60.499h1.602c0.854,1.311,2.039,2.205,3.225,2.205c0.874,0,1.27-0.396,1.27-0.998c0-0.75-0.541-1.041-2.476-1.54
	c-2.33-0.603-3.474-1.352-3.474-3.099c0-1.706,1.372-3.142,3.536-3.142c1.269,0,2.185,0.479,2.788,1.206l0.332-1.164h1.623v3.328
	h-1.603c-0.749-1.165-1.747-1.977-2.787-1.977c-0.812,0-1.228,0.374-1.228,0.937c0,0.707,0.562,0.978,2.413,1.456
	c2.122,0.562,3.558,1.248,3.558,3.183c0,1.686-1.311,3.203-3.683,3.203c-1.519,0-2.538-0.624-3.161-1.331l-0.334,1.311h-1.602
	V60.499z"/>
</svg>
