<?xml version="1.0" encoding="utf-8"?>
<!-- Generator: Adobe Illustrator 21.0.0, SVG Export Plug-In . SVG Version: 6.00 Build 0)  -->
<svg version="1.1" id="Layer_1" xmlns="http://www.w3.org/2000/svg" xmlns:xlink="http://www.w3.org/1999/xlink" x="0px" y="0px"
	 viewBox="0 0 100 100" style="enable-background:new 0 0 100 100;" xml:space="preserve">
<style type="text/css">
	.st0{fill:#FFFFFF;}
</style>
<path class="st0" d="M50,6.6C74,6.6,93.4,26,93.4,50C93.4,74,74,93.4,50,93.4S6.6,74,6.6,50C6.6,26,26,6.6,50,6.6 M50,0.5
	c-6.7,0-13.2,1.3-19.3,3.9C24.8,6.9,19.5,10.5,15,15c-4.5,4.5-8.1,9.8-10.6,15.7C1.8,36.8,0.5,43.3,0.5,50c0,6.7,1.3,13.2,3.9,19.3
	C6.9,75.2,10.5,80.5,15,85s9.8,8.1,15.7,10.6c6.1,2.6,12.6,3.9,19.3,3.9c6.7,0,13.2-1.3,19.3-3.9C75.2,93.1,80.5,89.5,85,85
	c4.5-4.5,8.1-9.8,10.6-15.7c2.6-6.1,3.9-12.6,3.9-19.3c0-6.7-1.3-13.2-3.9-19.3C93.1,24.8,89.5,19.5,85,15
	c-4.5-4.5-9.8-8.1-15.7-10.6C63.2,1.8,56.7,0.5,50,0.5L50,0.5z"/>
<path class="st0" d="M16.1,44.1H18V34.1h-1.9v-1.8h6.1c5.6,0,8.2,2.7,8.2,6.8c0,4-2.5,6.9-8.1,6.9h-6.3C16.1,46,16.1,44.1,16.1,44.1
	z M22.6,44.2c3,0,4.2-1.3,4.2-5.1c0-3.6-1.2-5-4.3-5h-1v10.2L22.6,44.2L22.6,44.2z"/>
<path class="st0" d="M31.2,43.6c0-0.6,0.2-1.2,0.7-1.7c0.6-0.6,1.6-1.1,4-1.4c1.1-0.2,1.2-0.2,1.2-0.4v-0.9c0-1.2-0.6-1.7-1.8-1.7
	c-0.4,0-0.9,0.1-1.2,0.2c0.3,0.2,0.5,0.6,0.5,1.1c0,0.7-0.6,1.3-1.5,1.3c-1.1,0-1.6-0.7-1.6-1.5c0-1.8,2.2-2.6,4.6-2.6
	c2.9,0,4,1.4,4,3.4v4.4c0,0.5,0.2,0.6,0.5,0.6c0.2,0,0.5-0.2,0.6-0.9l1,0.3c-0.4,1.6-1.2,2.3-2.6,2.3c-1.2,0-2.1-0.6-2.3-2.1h-0.1
	c-0.6,1.5-1.8,2.1-3.2,2.1C32.5,46.1,31.2,45.1,31.2,43.6z M37.2,42.2v-1c-0.2,0-0.4,0.1-0.9,0.2c-1.5,0.2-1.9,0.7-1.9,1.7
	c0,0.7,0.4,1.2,1.3,1.2C36.5,44.4,37.2,43.5,37.2,42.2z"/>
<path class="st0" d="M45.3,47.3c0,0.3-0.1,0.6-0.2,0.8c0.9-0.1,1.4-0.5,2-2l-3.9-8.2h-1.3v-1.7H48v1.7h-1.5l2.2,5.1l2-5.1h-1.2v-1.7
	h4.3v1.7h-1.2l-3.3,7.7c-1,2.4-2.1,3.9-4.4,3.9c-1.8,0-2.7-0.9-2.7-2.2c0-1,0.6-1.7,1.6-1.7C44.8,45.7,45.3,46.5,45.3,47.3z"/>
<path class="st0" d="M16.5,59.6h1.8c0.9,2.3,2,3.4,4.2,3.4c1.5,0,2.3-0.7,2.3-1.8c0-1.3-1.4-1.6-3.5-2.1c-2.2-0.5-4.8-1.3-4.8-4.4
	c0-2.5,2.1-4.3,4.8-4.3c1.5,0,2.8,0.6,3.5,1.5l0.4-1.5h1.8v4.9h-1.8c-0.9-2.3-1.9-3.2-3.7-3.2c-1.4,0-2.1,0.8-2.1,1.7
	c0,1.4,1.5,1.7,3.6,2.2c2.2,0.5,4.7,1.3,4.7,4.2c0,2.6-2.1,4.5-5,4.5c-1.7,0-3.2-0.7-4-1.7l-0.5,1.6h-1.8
	C16.5,64.7,16.5,59.6,16.5,59.6z"/>
<path class="st0" d="M28.6,62.7H30V51.8h-1.4V50h4.5v6.8c0.8-1.5,1.8-2.4,3.3-2.4c2.1,0,3,1.4,3,3.4v4.8h1.4v1.7h-5.6v-1.7h1.1v-4.4
	c0-0.6-0.1-1.2-0.4-1.5c-0.2-0.2-0.5-0.3-1-0.3c-1,0-1.9,1-1.9,2.4v3.8h1.1v1.7h-5.6C28.6,64.4,28.6,62.7,28.6,62.7z"/>
<path class="st0" d="M41.6,62c0-0.6,0.2-1.2,0.7-1.7c0.6-0.6,1.6-1.1,4-1.4c1.1-0.2,1.2-0.2,1.2-0.4v-0.9c0-1.2-0.6-1.7-1.8-1.7
	c-0.4,0-0.9,0.1-1.2,0.2c0.3,0.2,0.5,0.6,0.5,1.1c0,0.7-0.6,1.3-1.5,1.3c-1.1,0-1.6-0.7-1.6-1.5c0-1.8,2.2-2.6,4.6-2.6
	c2.9,0,4,1.4,4,3.4v4.4c0,0.5,0.2,0.6,0.5,0.6c0.2,0,0.5-0.2,0.6-0.9l1,0.3c-0.4,1.6-1.2,2.3-2.6,2.3c-1.2,0-2.1-0.6-2.3-2.1h-0.1
	c-0.6,1.5-1.8,2.1-3.2,2.1C42.8,64.6,41.6,63.6,41.6,62z M47.5,60.7v-1c-0.2,0-0.4,0.1-0.9,0.2c-1.5,0.2-1.9,0.7-1.9,1.7
	c0,0.7,0.4,1.2,1.3,1.2C46.9,62.8,47.5,61.9,47.5,60.7z"/>
<path class="st0" d="M52.3,66h1.4v-9.6h-1.4v-1.7h4.3v2.3c0.6-1.5,1.6-2.5,3.2-2.5c1,0,1.8,0.4,2.4,1c0.9,0.9,1.3,2.3,1.3,3.9
	c0,1.7-0.5,3.1-1.4,3.9c-0.7,0.7-1.5,1.1-2.5,1.1c-1.4,0-2.4-0.7-2.9-1.6V66h1.8v1.7h-6.3L52.3,66L52.3,66z M60.3,59.4
	c0-2-0.6-3-1.7-3c-1.2,0-2,1.4-2,3.2c0,1.7,0.6,3.1,2,3.1C59.8,62.7,60.3,61.5,60.3,59.4z"/>
<path class="st0" d="M67.6,59.9c0.1,2.3,1,3,2.6,3c1.2,0,1.9-0.5,2.3-1.7h1.6c-0.4,2-1.7,3.4-4.5,3.4c-3.2,0-5.2-2-5.2-5
	c0-3,2.2-5.2,5.1-5.2c3.3,0,4.8,2.3,4.7,5.5H67.6z M67.6,58.6h3.6c-0.1-2-0.6-2.8-1.8-2.8C68.4,55.8,67.8,56.5,67.6,58.6z"/>
<path class="st0" d="M75.1,61h1.6c0.9,1.3,2,2.2,3.2,2.2c0.9,0,1.3-0.4,1.3-1c0-0.8-0.5-1-2.5-1.5c-2.3-0.6-3.5-1.4-3.5-3.1
	c0-1.7,1.4-3.1,3.5-3.1c1.3,0,2.2,0.5,2.8,1.2l0.3-1.2h1.6v3.3h-1.6c-0.7-1.2-1.7-2-2.8-2c-0.8,0-1.2,0.4-1.2,0.9
	c0,0.7,0.6,1,2.4,1.5c2.1,0.6,3.6,1.2,3.6,3.2c0,1.7-1.3,3.2-3.7,3.2c-1.5,0-2.5-0.6-3.2-1.3l-0.3,1.3h-1.6L75.1,61L75.1,61z"/>
</svg>
