<?xml version="1.0" encoding="utf-8"?>
<!-- Generator: Adobe Illustrator 15.1.0, SVG Export Plug-In . SVG Version: 6.00 Build 0)  -->
<!DOCTYPE svg PUBLIC "-//W3C//DTD SVG 1.1//EN" "http://www.w3.org/Graphics/SVG/1.1/DTD/svg11.dtd">
<svg version="1.1" id="Layer_1" xmlns="http://www.w3.org/2000/svg" xmlns:xlink="http://www.w3.org/1999/xlink" x="0px" y="0px"
	 width="1600px" height="1600px" viewBox="0 0 1600 1600" enable-background="new 0 0 1600 1600" xml:space="preserve">
<g>
	<path d="M1821.65,726.825h23.373V601.059h-23.373V578.46h76.646c69.364,0,102.104,33.778,102.104,84.431
		c0,50.413-31.707,86.528-100.547,86.528h-78.203V726.825z M1902.2,727.334c37.681,0,51.952-16.381,51.952-64.174
		c0-45.211-15.07-62.612-53.781-62.612h-12.982v126.764h14.812L1902.2,727.334L1902.2,727.334z"/>
	<path d="M2009.744,719.529c0-8.048,3.088-15.586,8.561-21.041c8.073-8.06,20.537-13.25,50.414-17.158
		c14.272-2.074,15.562-2.341,15.562-5.463v-10.649c0-15.582-7.248-21.303-22.321-21.303c-5.192,0-10.659,1.035-15.588,3.109
		c3.883,2.864,6.229,7.28,6.229,13.255c0,9.1-7.79,16.122-18.438,16.122c-13.273,0-19.767-8.587-19.767-18.2
		c0-22.342,27.809-32.985,57.688-32.985c36.614,0,49.614,17.149,49.614,42.351v55.332c0,5.989,2.34,7.278,6.51,7.278
		c2.855,0,5.711-2.853,8.049-11.705l12.736,4.17c-4.927,20.003-14.541,29.089-31.949,29.089c-14.809,0-26.521-7.795-28.568-25.71
		h-1.321c-7.773,18.457-22.316,25.71-40.246,25.71C2025.321,751.735,2009.744,739.282,2009.744,719.529z M2084.281,703.162v-11.941
		c-2.322,0.523-5.178,0.769-11.687,2.074c-18.444,3.121-24.172,9.084-24.172,20.79c0,8.318,4.68,15.59,16.124,15.59
		C2076.229,729.665,2084.281,718.744,2084.281,703.162z"/>
	<path d="M2185.326,766.289c0,3.361-0.778,7.021-2.068,9.604c10.655-1.288,17.143-6.243,24.684-24.411l-48.822-102.108h-16.131
		v-21.547h76.146v21.547h-18.466l27.295,63.664l24.415-63.664h-15.34v-21.547h53.27v21.547h-14.812l-41.589,96.639
		c-12.461,29.37-26.485,48.591-54.562,48.591c-22.065,0-33.517-11.442-33.517-27.025c0-12.21,8.08-21.816,20.031-21.816
		C2179.117,745.771,2185.326,756.167,2185.326,766.289z"/>
	<path d="M1826.34,919.95h22.852c11.172,29.101,25.465,42.345,53.01,42.345c18.441,0,28.828-9.1,28.828-22.606
		c0-15.854-17.418-19.737-43.393-26.234c-28.051-6.758-59.729-16.381-59.729-54.565c0-31.692,26.757-54.294,60.002-54.294
		c18.709,0,34.805,7.013,43.634,18.961l5.464-18.438h22.854v60.782h-22.854c-10.926-28.329-23.635-39.763-45.715-39.763
		c-17.408,0-26.781,10.153-26.781,21.833c0,17.136,18.974,21.052,44.688,27.271c27.809,6.751,58.47,15.851,58.47,53.011
		c0,32.475-25.735,55.58-62.854,55.58c-21.326,0-40.035-8.828-49.641-20.783l-6.244,20.271h-22.588V919.95H1826.34z"/>
	<path d="M1977.003,958.14h17.659V822.534h-17.659v-22.087h55.858v84.954c9.365-18.451,22.072-29.895,41.82-29.895
		c26.248,0,37.151,17.686,37.151,42.881v59.751h17.419v21.574h-69.367V958.14h13.786v-54.55c0-8.079-1.563-14.548-5.462-18.47
		c-2.855-2.585-6.759-4.14-12.22-4.14c-11.955,0-23.125,12.217-23.125,29.605v47.553h13.507v21.574h-69.369L1977.003,958.14
		L1977.003,958.14z"/>
	<path d="M2139.085,949.834c0-8.081,3.124-15.589,8.581-21.054c8.053-8.067,20.543-13.252,50.402-17.149
		c14.288-2.068,15.578-2.341,15.578-5.465v-10.659c0-15.584-7.271-21.295-22.342-21.295c-5.191,0-10.66,1.027-15.576,3.1
		c3.901,2.862,6.238,7.302,6.238,13.269c0,9.101-7.806,16.112-18.466,16.112c-13.24,0-19.733-8.576-19.733-18.196
		c0-22.331,27.811-32.992,57.666-32.992c36.639,0,49.641,17.149,49.641,42.345v55.349c0,5.977,2.342,7.276,6.488,7.276
		c2.851,0,5.709-2.855,8.066-11.702l12.736,4.157c-4.951,20.023-14.564,29.1-31.956,29.1c-14.829,0-26.509-7.789-28.576-25.733
		h-1.297c-7.807,18.456-22.346,25.733-40.295,25.733C2154.673,982.042,2139.085,969.577,2139.085,949.834z M2213.646,933.471v-11.96
		c-2.336,0.52-5.193,0.771-11.681,2.074c-18.471,3.123-24.177,9.102-24.177,20.78c0,8.322,4.659,15.589,16.102,15.589
		C2205.604,959.954,2213.646,949.051,2213.646,933.471z"/>
	<path d="M2273.652,999.981h17.662V879.686h-17.662v-21.563h53.52v28.564c7.27-19.223,20.531-31.431,40.534-31.431
		c12.731,0,22.611,4.943,30.392,12.717c11.17,11.194,16.635,28.331,16.635,48.854c0,21.294-6.245,38.188-17.146,49.117
		c-8.835,8.814-18.973,13.77-31.443,13.77c-17.932,0-30.393-8.576-36.632-20.272v40.541h22.336v21.559h-78.202v-21.559
		L2273.652,999.981L2273.652,999.981z M2373.682,917.343c0-25.206-7.021-37.928-21.562-37.928c-15.069,0-24.94,17.941-24.94,40.282
		c0,21.822,8.071,38.965,25.462,38.965C2367.169,958.662,2373.682,944.107,2373.682,917.343z"/>
	<path d="M2464.321,923.844c1.559,28.332,12.996,37.671,32.225,37.671c14.535,0,23.632-5.965,29.097-21.289h20.244
		c-4.653,25.47-21.803,42.068-55.851,42.068c-40.527,0-65.2-24.925-65.2-62.344c0-36.882,27.267-64.686,63.904-64.686
		c41.05,0,60.27,29.104,58.436,68.578L2464.321,923.844L2464.321,923.844z M2464.592,907.489h45.462
		c-1.29-24.701-8.049-34.576-22.097-34.576C2474.468,872.927,2466.148,881.484,2464.592,907.489z"/>
	<path d="M2557.572,937.354h20.003c10.688,16.382,25.468,27.54,40.298,27.54c10.904,0,15.854-4.938,15.854-12.465
		c0-9.368-6.758-13.003-30.928-19.23c-29.105-7.536-43.373-16.874-43.373-38.705c0-21.295,17.124-39.236,44.15-39.236
		c15.85,0,27.299,5.987,34.81,15.06l4.146-14.536h20.269v41.567h-20.01c-9.368-14.552-21.833-24.686-34.806-24.686
		c-10.146,0-15.35,4.66-15.35,11.698c0,8.828,7.032,12.209,30.131,18.185c26.512,7.027,44.438,15.583,44.438,39.757
		c0,21.052-16.367,39.998-45.994,39.998c-18.961,0-31.688-7.8-39.475-16.63l-4.171,16.383h-20.003v-44.698L2557.572,937.354
		L2557.572,937.354z"/>
</g>
<g>
	<path d="M332.133,897.357h12.113c12.525,0,18.368-6.271,18.368-18.804V681.438c0-12.522-5.843-18.78-18.368-18.78h-12.113V897.357z
		 M299.556,633.84h49.277c32.156,0,46.363,14.619,46.363,46.768V879.39c0,31.741-15.041,46.771-46.363,46.771h-49.277V633.84z"/>
	<path d="M446.72,852.666h28.4l-14.202-158.27L446.72,852.666z M513.957,926.16h-32.16l-4.17-44.675h-33.414l-3.76,44.675h-30.071
		l30.071-292.742h43.433L513.957,926.16z"/>
	<polygon points="585.001,819.676 585.001,926.165 552.013,926.165 552.013,822.186 516.93,633.842 550.76,633.842 569.133,767.053 
		588.761,633.842 620.087,633.842 	"/>
	<g>
		<path d="M729.77,820.924v67.662c0,26.729-12.945,39.666-39.674,39.666H675.48c-26.312,0-39.259-12.938-39.259-39.252v-62.838
			h32.156v61.166c0,8.354,3.759,12.107,12.113,12.107h4.592c8.351,0,12.108-3.755,12.108-12.107v-62.221
			c0-12.117-2.5-17.131-10.438-23.394l-30.902-24.63c-15.036-12.117-19.628-22.558-19.628-43.438v-62.23
			c0-26.724,12.947-39.669,39.672-39.669h13.78c26.732,0,39.673,12.945,39.673,39.256v57.836h-32.565v-56.17
			c0-8.352-3.347-12.526-11.698-12.526h-4.175c-8.354,0-12.108,4.175-12.108,12.526v57.222c0,12.104,2.502,17.118,10.437,23.391
			l30.07,23.802C725.59,789.611,729.77,800.056,729.77,820.924"/>
	</g>
	<polygon points="816.584,762.875 816.584,633.84 849.574,633.84 849.574,926.16 816.584,926.16 816.584,792.947 785.256,792.947 
		785.256,926.16 752.689,926.16 752.689,633.84 785.256,633.84 785.256,762.875 	"/>
	<path d="M908.175,852.666h28.4l-14.204-158.27L908.175,852.666z M975.412,926.16h-32.156l-4.174-44.675h-33.41l-3.759,44.675
		H871.84l30.073-292.742h43.426L975.412,926.16z"/>
	<g>
		<path d="M1044.246,662.657h-13.781v122.771h13.781c8.349,0,12.113-4.179,12.113-12.522v-97.722
			C1056.359,666.411,1052.595,662.657,1044.246,662.657 M1030.465,926.16H997.89V633.84h51.784
			c27.562,0,39.681,12.104,39.681,39.665v101.064c0,26.312-13.366,39.68-39.681,39.68h-19.209V926.16L1030.465,926.16z"/>
	</g>
	<polygon points="1183.459,633.84 1183.459,663.477 1143.364,663.477 1143.364,763.298 1181.787,763.298 1181.787,792.527 
		1143.364,792.527 1143.364,896.512 1183.874,896.512 1183.874,926.16 1110.794,926.16 1110.794,633.84 	"/>
	<path d="M1300.444,820.924v67.662c0,26.729-12.947,39.666-39.681,39.666h-14.609c-26.314,0-39.258-12.938-39.258-39.252v-62.838
		h32.16v61.166c0,8.354,3.751,12.107,12.104,12.107h4.598c8.351,0,12.109-3.755,12.109-12.107v-62.221
		c0-12.117-2.502-17.131-10.44-23.394l-30.906-24.63c-15.034-12.117-19.624-22.558-19.624-43.438v-62.23
		c0-26.724,12.941-39.669,39.671-39.669h13.785c26.729,0,39.672,12.945,39.672,39.256v57.836h-32.575v-56.17
		c0-8.352-3.341-12.526-11.69-12.526h-4.183c-8.349,0-12.108,4.175-12.108,12.526v57.222c0,12.104,2.507,17.118,10.44,23.391
		l30.068,23.802C1296.266,789.611,1300.444,800.056,1300.444,820.924"/>
</g>
</svg>
